<?xml version="1.0" encoding="UTF-8" standalone="no"?>
<svg
   version="1.1"
   style="display:block"
   viewBox="0 0 1521.967 585.56458"
   width="760.98352"
   height="292.78229"
   preserveAspectRatio="none"
   id="svg22"
   sodipodi:docname="svg-ai-crea-un-logotipo-con-colores-vivos-usando-la-image-2026-04-02.svg"
   inkscape:version="1.4.2 (ebf0e940, 2025-05-08)"
   xmlns:inkscape="http://www.inkscape.org/namespaces/inkscape"
   xmlns:sodipodi="http://sodipodi.sourceforge.net/DTD/sodipodi-0.dtd"
   xmlns="http://www.w3.org/2000/svg"
   xmlns:svg="http://www.w3.org/2000/svg">
  <defs
     id="defs22" />
  <sodipodi:namedview
     id="namedview22"
     pagecolor="#ffffff"
     bordercolor="#000000"
     borderopacity="0.25"
     inkscape:showpageshadow="2"
     inkscape:pageopacity="0.0"
     inkscape:pagecheckerboard="0"
     inkscape:deskcolor="#d1d1d1"
     inkscape:zoom="1"
     inkscape:cx="379"
     inkscape:cy="138"
     inkscape:window-width="2560"
     inkscape:window-height="1027"
     inkscape:window-x="1512"
     inkscape:window-y="25"
     inkscape:window-maximized="1"
     inkscape:current-layer="svg22" />
  <path
     fill="#e7fc02"
     d="M 467.008,22.521 C 491.77,15.441 538.865,4.564 564.257,0 l -50.562,101.266 c -7.21,14.505 -20.049,42.13 -28.06,54.887 -13.948,29.784 -29.203,59.02 -43.829,88.491 l -91.579,183.849 -45.393,91.03 c -15.358,30.84 -25.499,68.74 -67.483,65.89 -34.902,-6.87 -42.401,-33.49 -57.349,-61.84 -7.427,-11.77 -55.619,-97.58 -57.437,-106.97 -7.506,-10.04 -13.941,-22.25 -20.125,-33.25 32.438,-7.92 64.804,-16.13 97.093,-24.63 6.986,12.09 15.881,26.6 21.927,38.9 33.866,-70.46 68.373,-140.6 103.518,-210.431 l 28.883,-58.389 C 369.654,96.401 382.125,60.93 414.418,41.628 427.85,33.6 451.533,22.981 467.008,22.521 Z"
     id="path2" />
  <path
     fill="#b91578"
     d="m 485.635,156.153 c -13.948,29.784 -29.203,59.02 -43.829,88.491 l -91.579,183.849 -45.393,91.03 c -15.358,30.84 -25.499,68.74 -67.483,65.89 -34.902,-6.87 -42.401,-33.49 -57.349,-61.84 49.16,-29.95 79.863,-56.15 113.555,-103.81 7.289,-15.38 13.642,-35.38 19.513,-51.66 5.902,-16.36 12.576,-32.97 18.226,-49.29 5.445,-4.06 18.505,-25.94 23.623,-32.95 7.942,-10.77 16.436,-21.13 25.447,-31.03 30.869,-33.243 71.246,-67.84 105.269,-98.68 z"
     id="path3" />
  <path
     fill="#fe6200"
     d="m 293.557,419.763 c -1.134,8.44 -7.972,26.87 -11.004,35.74 l -21.484,62.27 c -5.623,16.19 -17.36,53.82 -23.718,67.64 -34.902,-6.87 -42.401,-33.49 -57.349,-61.84 49.16,-29.95 79.863,-56.15 113.555,-103.81 z"
     id="path4" />
  <path
     fill="#fe6200"
     d="M 467.008,22.521 C 491.77,15.441 538.865,4.564 564.257,0 l -50.562,101.266 c -7.21,14.505 -20.049,42.13 -28.06,54.887 -34.023,30.84 -74.4,65.437 -105.269,98.68 -9.011,9.9 -17.505,20.26 -25.447,31.03 -5.118,7.01 -18.178,28.89 -23.623,32.95 0.186,-0.71 0.377,-1.42 0.576,-2.13 9.17,-32.88 26.154,-77.256 37.582,-110.389 l 26.668,-77.908 C 413.55,78.05 417.961,50.078 467.008,22.521 Z"
     id="path5" />
  <path
     fill="#b91578"
     d="m 102.44,383.353 c 32.438,-7.92 64.804,-16.13 97.093,-24.63 6.986,12.09 15.881,26.6 21.927,38.9 -15.938,30.44 -45.507,49.88 -80.993,32.77 -7.006,-3.38 -12.204,-8.57 -17.902,-13.79 -7.506,-10.04 -13.941,-22.25 -20.125,-33.25 z"
     id="path6" />
  <path
     fill="#fe6200"
     d="m 372.545,47.775 1.327,-0.035 c 0.253,2.221 -19.578,34.985 -22.141,39.27 l -320.49,86.34 0.048,145.573 c 78.467,-19.4 158.518,-43.09 236.895,-61.89 -10.596,22.15 -21.366,44.2 -32.309,66.18 l -4.37,7.55 c -8.21,2.77 -21.559,5.6 -30.49,7.79 l -50.138,12.47 c -50.173,12.8 -100.46,25.15 -150.853,37.05 L 0,149.284 c 13.061,-4.464 32.221,-9.078 45.828,-12.735 l 80.923,-21.763 z"
     id="path7" />
  <path
     fill="#851e8e"
     d="m 784.183,235.167 c 10.94,-0.324 22.85,-0.173 33.86,-0.227 0.48,16.396 0.27,33.883 0.34,50.363 8.97,-7.62 16.59,-12.69 28.83,-14.04 12.87,-1.38 25.74,2.54 35.66,10.84 26.2,21.92 25.46,65.06 4.44,90.4 -21.59,19.47 -48.81,19.89 -69.3,-1.32 0.14,4.76 0.24,9.53 0.3,14.3 -11.46,-0.03 -22.92,-0.12 -34.37,-0.27 0.27,-49.01 -1.09,-101.37 0.24,-150.046 z"
     id="path8" />
  <path
     fill="#ffffff"
     d="m 837.203,301.773 c 37.26,-2.43 40.59,44.98 10.62,54.56 -12.68,0.18 -22.42,-3.56 -27.53,-16.13 -3.01,-7.53 -2.94,-15.95 0.18,-23.44 3.59,-8.37 8.72,-11.81 16.73,-14.99 z"
     id="path9" />
  <path
     fill="#851e8e"
     d="m 1452.503,272.863 c 2.2,-0.1 4.39,-0.18 6.59,-0.23 17.07,-0.41 26.75,5.3 38.56,16.62 l -0.15,-14.63 24.09,-0.01 c 0.69,35.48 0.33,75.41 -0.31,110.85 l -24.5,-0.07 c 0.14,-3.81 0.86,-10.75 -0.46,-13.96 l -1.94,1.53 c -6.81,6.47 -14.88,11.26 -24.13,13.29 -13.61,2.94 -27.83,0.31 -39.49,-7.3 -39.59,-26.07 -32.18,-96.12 21.74,-106.09 z"
     id="path10" />
  <path
     fill="#ffffff"
     d="m 1456.263,293.903 c 47.92,-3.83 55.8,57.82 15.38,71.6 -33.09,3.24 -48.74,-22.78 -37.1,-53.76 3.48,-9.28 12.61,-14.62 21.72,-17.84 z"
     id="path11" />
  <path
     fill="#851e8e"
     d="m 1215.503,272.823 c 1.98,-0.1 3.96,-0.19 5.94,-0.26 18.19,-0.58 27.03,5.37 39.56,17.18 l -0.17,-15.1 23.7,-0.09 0.11,110.89 -24.67,-0.25 c 0.09,-3.9 0.63,-10.48 -0.52,-13.92 l -1.43,1.07 c -6.02,6.2 -12.24,10.76 -20.81,12.86 -75.51,18.56 -95.39,-98.07 -21.71,-112.38 z"
     id="path12" />
  <path
     fill="#ffffff"
     d="m 1220.573,293.793 c 47.49,-3.43 53.46,59.57 13.58,71.8 -44.21,5.52 -57.72,-57.77 -13.58,-71.8 z"
     id="path13" />
  <path
     fill="#851e8e"
     d="m 528.704,243.432 35.901,-0.196 c 20.486,-0.031 41.322,-2.007 58.357,12.237 18.559,15.53 18.498,47.57 2.194,64.77 -11.847,12.5 -25.105,14.41 -41.453,14.56 l -19.772,0.01 -0.028,50.73 -35.477,-0.12 c -0.711,-18.67 -0.112,-40.77 -0.091,-59.87 0.029,-27.05 -0.397,-55.24 0.369,-82.121 z"
     id="path14" />
  <path
     fill="#ffffff"
     d="m 563.956,271.533 c 19.432,-0.25 51.701,0.1 33.847,30.24 -9.985,7.01 -21.633,5.27 -33.844,5.13 z"
     id="path15" />
  <path
     fill="#851e8e"
     d="m 651.7,273.083 c 11.331,-0.09 22.662,-0.05 33.991,0.12 0.575,20.2 -0.622,41.24 0.202,61.48 0.415,5.64 2.905,15.45 8.125,18.74 12.114,7.64 22.854,2.74 30.824,-6.63 3.423,-15 2.141,-56.18 2.093,-73.65 l 34.768,-0.12 c 0.25,14.52 0.07,29.57 0.1,44.13 l 0.01,67.99 -34.822,0.25 0.148,-13.67 c -30.517,30.07 -73.956,12.55 -75.487,-29.45 -0.834,-22.86 -0.566,-46.33 0.048,-69.19 z"
     id="path16" />
  <path
     fill="#851e8e"
     d="m 1024.963,243.518 26.02,-0.168 c 14.27,38.413 28.13,78.233 42.59,116.283 14.49,-33.79 29.2,-80.21 42.88,-116.124 l 25.49,0.083 -6.92,18.341 c -16.07,40.89 -31.88,81.88 -47.43,122.97 -9.18,0.71 -19.2,0.32 -28.47,0.19 -17.41,-47.09 -36.17,-94.64 -54.16,-141.575 z"
     id="path17" />
  <path
     fill="#851e8e"
     d="m 920.003,235.02 34.07,-0.078 c 0.99,47.221 0.77,103.191 0.03,150.401 l -34.22,-0.04 c -0.04,-49.84 -0.51,-100.52 0.12,-150.283 z"
     id="path18" />
  <path
     fill="#851e8e"
     d="m 977.953,272.873 34.27,0.21 c 0.22,37.4 0.21,74.81 -0.03,112.21 -11.34,0.17 -23.05,0.03 -34.42,0.03 0.33,-37.45 -0.34,-74.98 0.18,-112.45 z"
     id="path19" />
  <path
     fill="#851e8e"
     d="m 1311.163,236.537 23.82,-0.039 v 148.945 l -23.75,-0.03 c -1.43,-47.16 -0.17,-101.32 -0.07,-148.876 z"
     id="path20" />
  <path
     fill="#851e8e"
     d="m 1362.653,235.946 23.42,-0.085 -0.04,149.762 -23.32,-0.11 c 0.49,-49.61 0.07,-99.92 -0.06,-149.567 z"
     id="path21" />
  <path
     fill="#851e8e"
     d="m 988.933,223.822 c 27.92,-3.514 38.21,26.584 12.3,36.771 -28.36,4.1 -38.01,-25.557 -12.3,-36.771 z"
     id="path22" />
</svg>
